<svg xmlns="http://www.w3.org/2000/svg" viewBox="0 0 13.995 14">
  <defs>
    <style>
      .cls-1 {
        fill: #393939;
      }
    </style>
  </defs>
  <g id="Formula" transform="translate(-398.023 -146)">
    <g id="Symbol_1_40" data-name="Symbol 1 – 40" transform="translate(108 79)">
      <path id="Path_1982" data-name="Path 1982" class="cls-1" d="M13.995,0V2.614H12.251V1.755H3.5C4.816,3.511,6.12,5.25,7.432,7,6.125,8.742,4.822,10.484,3.5,12.239H12.24v-.853h1.755V14H.123A.5.5,0,0,1,0,13.973c.033-.036.071-.066.1-.1Q2.3,10.936,4.5,8c.249-.331.495-.662.746-1-.016-.025-.027-.044-.041-.063Q2.639,3.519.077.1A.942.942,0,0,0,0,.027.662.662,0,0,1,.123,0H13.995Z" transform="translate(290.023 67)"/>
    </g>
  </g>
</svg>
